#!OML:ASF H:\Martial Arts Walks\Project 1\Capture day 1\Session 1\male.ASF
:FULLY-SPECIFIED
:DEGREES
3577
root -1.6662 15.1445 -29.9001 -353.553 46.9859 -358.702
lowerback 17.3042 2.73497 -8.49445
upperback 1.09449 2.19163 2.12874
thorax -8.95656 1.46307 6.62939
lowerneck 7.62901 -13.7421 -15.4319
upperneck -3.27881 -19.344 17.2098
head 1.03162 -9.98902 7.35325
rclavicle -4.70126e-014 -4.37326e-015
rhumerus -1.74383 0.806734 -64.9572
rradius 51.9051
rwrist 33.5795
rhand 23.9322 -26.2336
rfingers 7.12502
rthumb 48.179 671.638
lclavicle -4.70126e-014 -4.37326e-015
lhumerus -176.858 208.031 -100.121
lradius 116.048
lwrist 33.4162
lhand -18.4358 403.34
lfingers 7.12502
lthumb 7.84973 433.174
rfemur -31.4514 -8.40094 1.23606
rtibia 78.9531
rfoot -3.57829 -9.96775
rtoes 20.1762
lfemur -45.7038 -3.90841 -13.9106
ltibia 66.279
lfoot -19.2805 18.2743
ltoes -4.81142
3578
root -1.60024 15.1681 -29.9416 -353.328 45.5564 -357.969
lowerback 17.5442 3.04555 -9.07396
upperback 1.17865 2.43649 1.78967
thorax -9.05121 1.59572 6.5177
lowerneck 7.5935 -13.7018 -15.1899
upperneck -3.30271 -19.2605 17.2455
head 0.997383 -9.94951 7.33778
rclavicle -4.1049e-014 -3.97569e-015
rhumerus -2.05049 1.43962 -65.5117
rradius 51.3611
rwrist 34.3846
rhand 25.864 -25.9902
rfingers 7.12502
rthumb 49.9532 672.763
lclavicle -4.1049e-014 -3.97569e-015
lhumerus -174.18 207.256 -101.706
lradius 116.538
lwrist 32.9115
lhand -18.4906 404.015
lfingers 7.12502
lthumb 7.79685 433.851
rfemur -33.8034 -10.3426 2.39069
rtibia 81.4323
rfoot -3.48168 -9.61125
rtoes 19.6528
lfemur -44.6858 -5.12987 -14.5742
ltibia 65.8406
lfoot -19.782 18.2576
ltoes -5.7766
3579
root -1.53086 15.187 -29.9817 -353.094 44.0944 -357.238
lowerback 17.6683 3.27011 -9.74986
upperback 1.30044 2.56605 1.51897
thorax -9.02647 1.67231 6.56837
lowerneck 7.426 -13.5716 -15.1326
upperneck -3.2919 -19.0617 17.2612
head 0.991554 -9.84468 7.33798
rclavicle -7.15625e-014 1.37161e-014
rhumerus -2.10711 2.17241 -66.1044
rradius 50.8707
rwrist 34.5818
rhand 27.3953 -25.9103
rfingers 7.12502
rthumb 51.3507 673.606
lclavicle -7.15625e-014 1.37161e-014
lhumerus -171.688 206.075 -103.108
lradius 117.021
lwrist 32.4716
lhand -19.793 404.64
lfingers 7.12502
lthumb 6.53962 434.519
rfemur -36.1092 -12.3139 3.75861
rtibia 83.7213
rfoot -3.69899 -9.4284
rtoes 18.7131
lfemur -43.7117 -6.29205 -15.2967
ltibia 65.471
lfoot -20.1156 18.5531
ltoes -6.46433
3580
root -1.45812 15.194 -30.02 -353.054 42.628 -356.743
lowerback 17.8181 3.53874 -10.2015
upperback 1.38665 2.79085 1.23045
thorax -9.06357 1.78837 6.44166
lowerneck 7.33175 -13.5 -14.9264
upperneck -3.32782 -18.9323 17.2433
head 0.953937 -9.77833 7.31066
rclavicle 3.35449e-014 -3.97569e-016
rhumerus -2.33011 2.60088 -66.715
rradius 50.4725
rwrist 34.387
rhand 28.9051 -26.3998
rfingers 7.12502
rthumb 52.7199 673.932
lclavicle 3.35449e-014 -3.97569e-016
lhumerus -169.298 205.019 -104.36
lradius 117.49
lwrist 32.1585
lhand -19.8155 405.502
lfingers 7.12502
lthumb 6.51795 435.382
rfemur -38.3614 -14.3553 5.46982
rtibia 85.7981
rfoot -4.07905 -9.31195
rtoes 18.2954
lfemur -42.8012 -7.33241 -15.9033
ltibia 65.2048
lfoot -20.4046 19.0779
ltoes -6.89492
3581
root -1.38021 15.2075 -30.0544 -352.961 41.1022 -356.28
lowerback 17.8421 3.82298 -10.6769
upperback 1.43871 3.04297 0.94322
thorax -9.0764 1.91824 6.3232
lowerneck 7.21956 -13.4184 -14.6486
upperneck -3.38372 -18.7792 17.1442
head 0.894613 -9.69828 7.25124
rclavicle 2.93704e-014 -1.41137e-014
rhumerus -2.60855 3.08501 -67.2948
rradius 50.1864
rwrist 33.9646
rhand 29.7987 -26.3687
rfingers 7.12502
rthumb 53.5259 674.478
lclavicle 2.93704e-014 -1.41137e-014
lhumerus -167.046 203.939 -105.417
lradius 117.89
lwrist 31.8333
lhand -20.9615 406.1
lfingers 7.12502
lthumb 5.41148 436.011
rfemur -40.5801 -16.0819 7.40911
rtibia 87.5836
rfoot -4.37007 -9.32271
rtoes 17.8967
lfemur -41.9185 -8.16071 -16.525
ltibia 64.9606
lfoot -20.7733 19.4683
ltoes -7.17437
3582
root -1.29993 15.2233 -30.0887 -353.067 39.579 -356.091
lowerback 17.8984 4.02048 -10.9632
upperback 1.47916 3.22287 0.75586
thorax -9.10233 2.00952 6.226
lowerneck 7.06054 -13.2878 -14.5834
upperneck -3.35875 -18.5825 17.0917
head 0.884723 -9.59299 7.22974
rclavicle -5.76476e-015 -4.96962e-015
rhumerus -2.75677 3.7499 -67.8427
rradius 49.8955
rwrist 33.4879
rhand 29.9998 -26.4884
rfingers 7.12502
rthumb 53.7067 674.477
lclavicle -5.76476e-015 -4.96962e-015
lhumerus -165.077 202.614 -106.322
lradius 118.304
lwrist 31.3797
lhand -21.9528 406.871
lfingers 7.12502
lthumb 4.45439 436.805
rfemur -42.6959 -17.5858 9.68228
rtibia 89.0548
rfoot -4.37285 -9.3815
rtoes 17.2573
lfemur -41.0571 -8.88469 -16.9925
ltibia 64.7467
lfoot -21.1118 19.8829
ltoes -7.42526
3583
root -1.21703 15.2371 -30.1201 -353.148 37.9861 -355.95
lowerback 17.8868 4.26555 -11.2389
upperback 1.44608 3.46948 0.553966
thorax -9.18512 2.13694 6.08731
lowerneck 7.0978 -13.1297 -14.4272
upperneck -3.43452 -18.352 17.0335
head 0.799889 -9.4804 7.21763
rclavicle 2.74323e-014 -8.94531e-015
rhumerus -3.05672 4.36843 -68.4081
rradius 49.5978
rwrist 33.435
rhand 29.0551 -26.4429
rfingers 7.12502
rthumb 52.8554 673.974
lclavicle 2.74323e-014 -8.94531e-015
lhumerus -163.257 201.329 -106.926
lradius 118.755
lwrist 30.8973
lhand -22.1942 408.082
lfingers 7.12502
lthumb 4.22123 438.02
rfemur -44.784 -18.8178 12.0596
rtibia 90.2576
rfoot -4.20935 -9.37715
rtoes 16.6699
lfemur -40.2585 -9.35553 -17.466
ltibia 64.5331
lfoot -21.353 20.3849
ltoes -7.70711
3584
root -1.13216 15.2523 -30.145 -353.213 36.4549 -355.789
lowerback 17.8847 4.5045 -11.479
upperback 1.43531 3.716 0.359437
thorax -9.24655 2.26113 5.93581
lowerneck 6.87758 -13.0377 -14.2749
upperneck -3.38864 -18.1953 16.8904
head 0.795584 -9.39101 7.14803
rclavicle -1.72446e-014 -1.61513e-014
rhumerus -3.36615 4.59434 -68.9553
rradius 49.61
rwrist 32.5866
rhand 31.4247 -26.7498
rfingers 7.12502
rthumb 54.9831 675.099
lclavicle -1.72446e-014 -1.61513e-014
lhumerus -161.513 200.196 -107.47
lradius 119.086
lwrist 30.0582
lhand -23.2927 408.554
lfingers 7.12502
lthumb 3.16039 438.51
rfemur -46.7265 -19.869 14.4096
rtibia 91.2102
rfoot -3.89937 -9.34689
rtoes 15.5838
lfemur -39.4464 -9.71139 -17.9744
ltibia 64.3006
lfoot -21.6535 20.8617
ltoes -7.86743
3585
root -1.04869 15.2697 -30.1669 -353.339 34.9191 -355.642
lowerback 17.9412 4.73065 -11.7381
upperback 1.40922 3.93396 0.180025
thorax -9.35477 2.37544 5.81557
lowerneck 6.73361 -12.8881 -14.1555
upperneck -3.35925 -17.9706 16.7637
head 0.768821 -9.27105 7.10001
rclavicle 3.11346e-014 -3.10353e-014
rhumerus -3.6056 4.90126 -69.5177
rradius 49.497
rwrist 32.1003
rhand 31.397 -26.7887
rfingers 7.12502
rthumb 54.9584 675.043
lclavicle 3.11346e-014 -3.10353e-014
lhumerus -159.976 199.027 -107.915
lradius 119.448
lwrist 29.0354
lhand -24.7138 409.114
lfingers 7.12502
lthumb 1.78799 439.086
rfemur -48.4936 -20.6893 16.7012
rtibia 91.9293
rfoot -3.58672 -9.27718
rtoes 14.365
lfemur -38.5726 -9.92807 -18.4605
ltibia 64.0612
lfoot -22.033 21.1938
ltoes -7.64324
3586
root -0.964572 15.2828 -30.1848 -353.448 33.3698 -355.489
lowerback 17.9369 4.93037 -11.9973
upperback 1.38777 4.12656 0.0142173
thorax -9.42043 2.47592 5.71968
lowerneck 6.55625 -12.7076 -14.044
upperneck -3.33471 -17.7011 16.5778
head 0.734572 -9.12602 7.0363
rclavicle -1.19279e-013 3.88251e-015
rhumerus -3.7037 5.33605 -69.9952
rradius 49.3822
rwrist 31.2606
rhand 31.9468 -26.9194
rfingers 7.12502
rthumb 55.4482 675.271
lclavicle -1.19279e-013 3.88251e-015
lhumerus -158.589 197.885 -108.212
lradius 119.777
lwrist 27.7159
lhand -25.8719 409.554
lfingers 7.12502
lthumb 0.669508 439.533
rfemur -50.1546 -21.2992 18.8705
rtibia 92.4794
rfoot -3.17765 -9.26199
rtoes 13.4328
lfemur -37.739 -9.94084 -18.9825
ltibia 63.814
lfoot -22.1203 21.7894
ltoes -8.17627
3587
root -0.879074 15.2884 -30.2051 -353.545 31.7924 -355.306
lowerback 17.9706 5.15476 -12.201
upperback 1.34619 4.35328 -0.176573
thorax -9.53086 2.59217 5.55087
lowerneck 6.42859 -12.5416 -13.9428
upperneck -3.31814 -17.4568 16.4326
head 0.699556 -8.99655 6.9879
rclavicle -1.21259e-014 -7.52897e-015
rhumerus -3.86494 5.47347 -70.5224
rradius 49.3207
rwrist 30.3411
rhand 31.5792 -27.1975
rfingers 7.12502
rthumb 55.1208 674.752
lclavicle -1.21259e-014 -7.52897e-015
lhumerus -157.295 196.857 -108.458
lradius 120.125
lwrist 26.252
lhand -26.9174 410.004
lfingers 7.12502
lthumb -0.340324 439.983
rfemur -51.8147 -21.7163 20.8619
rtibia 92.8772
rfoot -3.04131 -9.01249
rtoes 12.144
lfemur -36.9586 -9.84252 -19.5562
ltibia 63.5938
lfoot -22.0141 22.6182
ltoes -8.33591
